#tb 0: 1/11025
0,          0,          0,      264,      528, 0xa2579e96
0,        264,        264,      264,      528, 0xf9b23172
0,        528,        528,      264,      528, 0x5571a0fe
0,        792,        792,      264,      528, 0x2c989245
0,       1056,       1056,      264,      528, 0xc4d3b5b5
0,       1320,       1320,      264,      528, 0x0becb08d
0,       1584,       1584,      264,      528, 0x71537374
0,       1848,       1848,      264,      528, 0xed6e4784
0,       2112,       2112,      264,      528, 0x8dc73f7e
0,       2376,       2376,      264,      528, 0x20804ba8
0,       2640,       2640,      264,      528, 0xcfdd4803
0,       2904,       2904,      264,      528, 0x6fad0da5
0,       3168,       3168,      264,      528, 0xeaa41f45
0,       3432,       3432,      264,      528, 0x99ef463e
0,       3696,       3696,      264,      528, 0x5a8c256a
0,       3960,       3960,      264,      528, 0x668c253a
0,       4224,       4224,      264,      528, 0x29890b2e
0,       4488,       4488,      264,      528, 0x6cd51639
0,       4752,       4752,      264,      528, 0x6cc95342
0,       5016,       5016,      264,      528, 0x2bdc59ea
0,       5280,       5280,      264,      528, 0x72ff263d
0,       5544,       5544,      264,      528, 0xb5bd3592
0,       5808,       5808,      264,      528, 0x16de4402
0,       6072,       6072,      264,      528, 0x80195ab4
0,       6336,       6336,      264,      528, 0x425c594c
0,       6600,       6600,      264,      528, 0x04b32203
0,       6864,       6864,      264,      528, 0x688a38ec
0,       7128,       7128,      264,      528, 0x34531167
0,       7392,       7392,      264,      528, 0xdef83475
0,       7656,       7656,      264,      528, 0xf5fe3fe5
